<svg width="135" height="46" viewBox="0 0 135 46" fill="none" xmlns="http://www.w3.org/2000/svg">
    <g clip-path="url(#clip0_7190_30721)">
        <path
            d="M44.2462 10.4467C44.1678 10.3618 44.0744 10.3013 43.9899 10.2316C43.9568 10.2043 43.2301 9.66502 43.194 9.64684C42.6332 9.32266 36.7899 6.12634 34.6945 4.98414C33.9678 4.58422 33.1538 4.38123 32.3246 4.38729C32.2583 4.38729 31.1608 4.42062 30.6754 4.42062C29.4965 4.42971 28.3176 4.34185 27.1477 4.1631C26.7558 4.09947 26.4422 4.04494 26.2643 3.94193C24.7055 3.06938 23.1377 2.21803 21.5668 1.36972L20.8824 0.997069C20.5085 0.781961 20.1015 0.633506 19.6764 0.557764C19.4322 0.512319 19.1819 0.49717 18.9377 0.494141C18.4673 0.494141 17.8975 0.569883 17.2945 0.833466C16.6884 1.09705 16.0583 1.53938 15.4673 2.27257C15.4673 2.27257 14.9095 2.98152 14.7377 3.17239C13.7759 4.22369 12.5698 5.13866 11.0382 5.95061C9.44623 6.80196 7.62211 7.48667 5.3005 8.10775C5.3005 8.10775 3.93467 8.45011 3.33467 8.78035C1.2392 9.92254 0.0723618 11.8888 0.0452261 14.3217C0.0241206 16.3273 0.0301508 18.3511 0.0331658 20.3144V20.887L0 22.8169V24.9104C0 27.0827 0 29.2611 0.00603015 31.4333C0.00603015 31.9908 0.0572864 32.5483 0.171859 33.0906C0.642211 35.2659 1.82412 37.0625 3.6 38.2865C4.44724 38.8773 14.4874 44.2823 15.0513 44.4853C15.1055 44.5034 15.1538 44.5277 15.208 44.5458C15.4251 44.6216 15.6482 44.6882 15.8744 44.7488C16.0312 44.7973 16.1819 44.8549 16.3447 44.8912C16.402 44.9094 16.4623 44.9124 16.5196 44.9246C18.0603 45.3063 19.794 45.5063 21.7327 45.5063C23.5146 45.4911 25.2905 45.3548 27.0543 45.0942L27.6995 45.0064C35.002 43.9732 40.2241 41.5737 43.2302 37.8684C45.5487 35.0114 45.7296 32.3059 45.7327 31.5424L45.7658 14.2732C45.7658 12.7947 45.2291 11.4313 44.2492 10.4497L44.2462 10.4467ZM43.6492 31.5364C43.6492 31.9908 43.6372 40.6375 27.404 42.931L26.7588 43.0219C10.5347 45.3063 10.5528 36.6626 10.5528 36.2112L10.5829 18.945C10.5859 17.0999 11.8764 15.3548 13.5739 14.9518C20.4874 13.3128 23.8734 10.5588 25.5377 8.26833L25.6372 8.13199C26.0261 7.65633 26.5598 7.32003 27.1508 7.23823C27.6995 7.1534 28.2513 7.32306 28.6583 7.70481L28.7487 7.80782C30.407 9.64078 33.7869 11.4374 40.7005 11.1253C42.401 11.0496 43.6854 12.4342 43.6824 14.2732L43.6492 31.5424V31.5364Z"
            fill="white" />
        <path
            d="M40.6404 19.7686C40.6404 20.6048 40.6404 22.9892 40.6343 23.8314C40.6343 24.1768 40.6343 24.91 40.6283 25.3766C40.6283 25.619 40.4504 25.8219 40.2122 25.8553L35.0896 26.5794C34.8002 26.6218 34.5379 26.3915 34.5409 26.0976L34.5469 20.52C34.5469 19.5868 33.6755 18.9324 32.5961 19.0657C31.5198 19.199 30.6394 20.0686 30.6394 21.0017L30.6303 26.7884C30.6303 27.0308 30.4524 27.2368 30.2142 27.2701L25.0886 27.9942C24.7992 28.0367 24.5368 27.8094 24.5368 27.5125V27.0581L24.5459 21.8743C24.5459 21.8318 24.5399 21.7985 24.5399 21.7591C24.5399 20.826 23.6655 20.1685 22.5891 20.3049C21.5127 20.4412 20.6323 21.3047 20.6323 22.2439L20.6203 28.2063C20.6203 28.4487 20.4424 28.6517 20.2042 28.685L15.0816 29.4091C14.7891 29.4515 14.5268 29.2213 14.5298 28.9244L14.5389 22.9952C14.5479 19.1475 18.16 15.5664 22.5951 15.0181H22.6072C23.6836 14.8817 24.7147 14.9393 25.6524 15.1665C26.9519 15.4695 28.3178 15.2817 29.5208 14.6969C30.1117 14.4091 30.7389 14.1758 31.3931 14.0122C31.7881 13.9092 32.1891 13.8335 32.6022 13.782C37.0404 13.2336 40.6404 15.9209 40.6313 19.7686H40.6404Z"
            fill="white" />
        <path
            d="M40.6401 28.2976L40.628 31.1061C40.622 34.9508 37.0069 38.5289 32.5718 39.0772H32.5627C31.4863 39.2105 30.4552 39.156 29.5175 38.9348C28.218 38.6288 26.8492 38.8197 25.6492 39.4014C25.0552 39.6923 24.4311 39.9225 23.7768 40.0861C23.3788 40.1861 22.9808 40.2618 22.5677 40.3164C18.1296 40.8647 14.5265 38.1774 14.5386 34.3297C14.5386 33.4905 14.5386 34.2328 14.5446 33.3935C14.5446 33.0451 14.5446 32.315 14.5446 31.8454C14.5446 31.603 14.7225 31.4 14.9607 31.3667L20.0833 30.6426C20.3758 30.6032 20.6351 30.8304 20.6351 31.1243L20.626 33.5783C20.626 34.5115 21.5004 35.1659 22.5768 35.0326C23.6532 34.8963 24.5366 34.0298 24.5366 33.0906L24.5426 30.4335C24.5426 30.1911 24.7235 29.9851 24.9617 29.9518L30.0843 29.2307C30.3768 29.1914 30.6361 29.4186 30.6361 29.7125V30.1669L30.627 32.2301C30.627 32.2665 30.6331 32.3089 30.6331 32.3392C30.6331 33.2814 31.5105 33.9328 32.5868 33.7995C33.6632 33.6662 34.5436 32.7967 34.5436 31.8605L34.5557 29.0247C34.5557 28.7823 34.7336 28.5763 34.9718 28.543L40.0944 27.8189C40.3868 27.7795 40.6461 28.0067 40.6461 28.3036L40.6401 28.2976Z"
            fill="white" />
        <path
            d="M81.6692 14.6972V34.0509C81.6692 35.2688 80.6832 36.2565 79.4742 36.2565C78.2651 36.2565 77.3124 35.2688 77.3124 34.0509C77.3124 25.08 77.3486 21.5746 77.5506 19.7841L77.6802 18.6328L71.0169 27.9279C70.5888 28.5338 70.0672 28.8671 69.5516 28.8671C69.036 28.8671 68.5295 28.552 68.0893 27.9279L61.4923 18.6176L61.6249 19.7871C61.827 21.5534 61.8631 24.8982 61.8631 34.0509C61.8631 35.2688 60.8923 36.2565 59.7013 36.2565C58.5104 36.2565 57.5063 35.2688 57.5063 34.0509V14.6972C57.5063 13.1975 58.7214 11.9766 60.2139 11.9766C61.0762 11.9766 61.8601 12.3704 62.3636 13.0521L69.5878 23.1592L76.8089 13.0551C77.3124 12.3704 78.0993 11.9766 78.9616 11.9766C80.4541 11.9766 81.6692 13.1975 81.6692 14.6972Z"
            fill="white" />
        <path
            d="M102.606 26.5912C102.606 26.4306 102.606 26.2761 102.579 26.1337C101.967 21.2741 98.5961 18.2656 93.775 18.2656C88.6162 18.2656 84.8745 22.1012 84.8745 27.382C84.8745 32.6627 88.6614 36.3589 94.0826 36.3589C96.7177 36.3589 98.967 35.3531 100.77 33.3656C101.213 32.8839 101.307 32.4264 101.307 32.1265C101.307 31.1873 100.471 30.3662 99.5217 30.3662C98.9941 30.3662 98.5539 30.5874 98.18 31.0449C97.1217 32.3052 95.7559 32.9445 94.1157 32.9445C91.4233 32.9445 89.3127 31.1933 89.0956 28.7847L89.0655 28.4545H100.514C101.466 28.4545 102.606 28.1303 102.606 26.5912ZM89.0745 25.8277L89.0956 25.5066C89.2403 23.1949 91.164 21.5801 93.775 21.5801C96.3861 21.5801 98.2675 23.1889 98.4876 25.4975L98.5177 25.8277H89.0745Z"
            fill="white" />
        <path
            d="M115.673 20.1998C115.673 21.0936 115.058 22.1722 113.325 22.2691C110.934 22.4115 109.619 23.7506 109.619 26.0411V34.1213C109.619 35.5876 108.515 36.2572 107.493 36.2572C106.471 36.2572 105.365 35.524 105.365 34.1213V20.5422C105.365 19.1394 106.435 18.4062 107.493 18.4062C108.552 18.4062 109.619 19.1394 109.619 20.5422V21.6692L110.18 20.7331C110.94 19.4606 111.935 18.785 113.331 18.6062C113.472 18.5759 113.626 18.5759 113.786 18.5759C115.179 18.5759 115.673 19.4151 115.673 20.1998Z"
            fill="white" />
        <path
            d="M125.62 18.2656C120.205 18.2656 116.276 22.0709 116.276 27.3123C116.276 32.5536 120.205 36.3589 125.62 36.3589C131.035 36.3589 135 32.5536 135 27.3123C135 22.0709 131.056 18.2656 125.62 18.2656ZM125.62 32.5658C122.593 32.5658 120.395 30.3571 120.395 27.3123C120.395 24.2674 122.593 22.0588 125.62 22.0588C128.647 22.0588 130.884 24.2705 130.884 27.3123C130.884 30.3541 128.671 32.5658 125.62 32.5658Z"
            fill="white" />
    </g>
    <defs>
        <clipPath id="clip0_7190_30721">
            <rect width="135" height="45" fill="white" transform="translate(0 0.5)" />
        </clipPath>
    </defs>
</svg>