<svg width="342" height="120" viewBox="0 0 342 120" fill="none" xmlns="http://www.w3.org/2000/svg">
    <path fill-rule="evenodd" clip-rule="evenodd"
        d="M243.474 42.7183C242.561 42.3188 241.971 41.4166 241.971 40.4199V9.50877C241.971 8.12322 243.094 7 244.479 7H266.222C267.608 7 268.731 8.12321 268.731 9.50877V47.8031C268.731 48.7781 269.296 49.6647 270.179 50.0768L284.754 56.873C285.426 57.1864 286.202 57.1864 286.874 56.873L302.706 49.4901C303.59 49.078 304.155 48.1913 304.155 47.2164V9.67251C304.155 8.28696 305.278 7.16374 306.664 7.16374L328.406 7.16374C329.792 7.16374 330.915 8.28696 330.915 9.67251V40.5837C330.915 41.5804 330.325 42.4826 329.412 42.8821L325.366 44.6522L296.988 58.0405C295.066 58.9476 295.072 61.6848 296.999 62.5832L303.231 65.4895C303.273 65.5091 303.321 65.4779 303.32 65.4315C303.32 65.386 303.366 65.3548 303.408 65.3726L329.386 76.3938C330.313 76.787 330.915 77.6964 330.915 78.7033V109.594C330.915 110.98 329.792 112.103 328.406 112.103L306.619 112.103C305.251 112.103 304.135 111.007 304.111 109.639L303.449 72.6137C303.432 71.6627 302.878 70.8031 302.02 70.3939L287.567 63.5043C286.887 63.1803 286.098 63.1787 285.417 63.5L270.169 70.6937C269.291 71.108 268.731 71.9917 268.731 72.9626L268.731 109.594C268.731 110.98 267.608 112.103 266.222 112.103H244.479C243.094 112.103 241.971 110.98 241.971 109.594V78.6832C241.971 77.6865 242.561 76.7843 243.474 76.3848L268.687 65.3543L275.37 62.2377C277.292 61.3413 277.304 58.612 275.389 57.6994L249.405 45.313L243.474 42.7183ZM137.439 7.99998C136.053 7.99998 134.93 9.1232 134.93 10.5088L134.93 105.006V110.023C134.93 110.485 135.304 110.86 135.766 110.86L199.322 110.86L222.737 110.86H223.573C224.959 110.86 226.082 109.736 226.082 108.351V88.2139C226.082 86.3357 224.094 85.1235 222.424 85.9837L186.04 104.727C185.684 104.91 185.29 105.006 184.891 105.006H164.199C162.813 105.006 161.69 103.883 161.69 102.497V10.5087C161.69 9.12319 160.567 7.99998 159.181 7.99998L137.439 7.99998ZM16.1813 8.83623C16.1813 8.83623 16.1813 8.83623 16.1813 8.83623L14.0906 8.83623C12.936 8.83623 12 9.77224 12 10.9269L12 35.7808C12 37.8133 14.2904 39.0022 15.9526 37.8324L48.1884 15.1471C48.6111 14.8497 49.1154 14.69 49.6323 14.69H51.3041C52.6897 14.69 53.8129 15.8132 53.8129 17.1988L53.8129 107.515C53.8129 108.9 54.9361 110.023 56.3216 110.023H78.0643C79.4499 110.023 80.5731 108.9 80.5731 107.515V17.1988C80.5731 15.8132 81.6963 14.69 83.0819 14.69H83.3601C83.8531 14.69 84.3353 14.8353 84.7462 15.1078L119.327 38.032C120.995 39.1375 123.222 37.9417 123.222 35.9409L123.222 11.345C123.222 9.95945 122.099 8.83623 120.713 8.83623L103.988 8.83623L16.1813 8.83622C16.1813 8.83622 16.1813 8.83623 16.1813 8.83623Z"
        fill="#F6F6F6" />
</svg>